<svg xmlns="http://www.w3.org/2000/svg" viewBox="0 0 400 150"><defs><style>.cls-1{fill:#d00000;}.cls-2{fill:#fff;}</style></defs><title>queue_curtain</title><g id="Layer_2" data-name="Layer 2"><g id="Layer_1-2" data-name="Layer 1"><polygon class="cls-1" points="400 101 199.82 150 0 101 0 0 400 0 400 101"/><path class="cls-2" d="M73.47,42.87q0-4.76,2.27-7.31T82.54,33q4.54,0,6.8,2.55t2.27,7.31v1.23H85.79V42.48a4.36,4.36,0,0,0-.81-3,3.4,3.4,0,0,0-4.54,0,4.36,4.36,0,0,0-.81,3,6.94,6.94,0,0,0,.9,3.56A14.75,14.75,0,0,0,82.77,49q1.34,1.37,2.88,2.74a27.52,27.52,0,0,1,2.88,3,15.27,15.27,0,0,1,2.24,3.7,12.21,12.21,0,0,1,.9,4.87q0,4.76-2.32,7.31t-6.86,2.55q-4.54,0-6.86-2.55T73.3,63.26V60.85h5.82v2.8a4.05,4.05,0,0,0,.87,3,3.64,3.64,0,0,0,4.65,0,4.06,4.06,0,0,0,.87-3,7,7,0,0,0-.9-3.56,14.84,14.84,0,0,0-2.24-2.91Q81,55.81,79.49,54.44a27.26,27.26,0,0,1-2.88-3,15.21,15.21,0,0,1-2.24-3.7A12.19,12.19,0,0,1,73.47,42.87Z"/><path class="cls-2" d="M101.36,50h8.46v5.6h-8.46V67.07H112v5.6H95.2V33.47H112v5.6H101.36Z"/><path class="cls-2" d="M128.69,72.67q-.11-.39-.22-.73a5.54,5.54,0,0,1-.2-.84,10.26,10.26,0,0,1-.11-1.29q0-.78,0-2V61.69a6,6,0,0,0-1-3.86,3.84,3.84,0,0,0-3.08-1.12H122v16h-6.16V33.47h9.3q4.82,0,7,2.24t2.16,6.78v3.08q0,6-4,8a5.52,5.52,0,0,1,3.22,3.11,14,14,0,0,1,.87,5.24v6a25.16,25.16,0,0,0,.11,2.55,8.16,8.16,0,0,0,.56,2.21ZM122,39.07v12h2.41a3.87,3.87,0,0,0,2.72-.9,4.3,4.3,0,0,0,1-3.25V43.1a5,5,0,0,0-.76-3.08,2.86,2.86,0,0,0-2.38-1Z"/><path class="cls-2" d="M147.5,65.44l4.7-32h5.66l-6,39.2h-9.18l-6-39.2h6.22Z"/><path class="cls-2" d="M160.72,33.47h6.16v39.2h-6.16Z"/><path class="cls-2" d="M189.22,58.05v5.21q0,4.76-2.32,7.31T180,73.11q-4.54,0-6.86-2.55t-2.32-7.31V42.87q0-4.76,2.32-7.31T180,33q4.54,0,6.86,2.55t2.32,7.31v3.81H183.4v-4.2a4.17,4.17,0,0,0-.87-3,3.55,3.55,0,0,0-4.65,0,4.16,4.16,0,0,0-.87,3V63.65a4.05,4.05,0,0,0,.87,3,3.64,3.64,0,0,0,4.65,0,4.06,4.06,0,0,0,.87-3v-5.6Z"/><path class="cls-2" d="M199.13,50h8.46v5.6h-8.46V67.07h10.64v5.6H193V33.47h16.8v5.6H199.13Z"/><path class="cls-2" d="M221.76,42.87q0-4.76,2.41-7.31T231.11,33q4.54,0,6.94,2.55t2.41,7.31V63.26a11.49,11.49,0,0,1-1.18,5.49,1.13,1.13,0,0,0,.59.7,3.43,3.43,0,0,0,1.15.14h.56v5.49h-.84a7.19,7.19,0,0,1-3.39-.7,4.33,4.33,0,0,1-1.93-2,13.43,13.43,0,0,1-2,.53,12.71,12.71,0,0,1-2.3.2q-4.54,0-6.94-2.55t-2.41-7.31Zm6.16,20.78a4.16,4.16,0,0,0,.87,3,3.54,3.54,0,0,0,4.65,0,4.16,4.16,0,0,0,.87-3V42.48a4.17,4.17,0,0,0-.87-3,3.55,3.55,0,0,0-4.65,0,4.16,4.16,0,0,0-.87,3Z"/><path class="cls-2" d="M250.32,33.47V63.71a4.05,4.05,0,0,0,.87,3,3.63,3.63,0,0,0,4.65,0,4.06,4.06,0,0,0,.87-3V33.47h5.82V63.31q0,4.76-2.32,7.31t-6.86,2.55q-4.54,0-6.86-2.55t-2.32-7.31V33.47Z"/><path class="cls-2" d="M272.88,50h8.46v5.6h-8.46V67.07h10.64v5.6h-16.8V33.47h16.8v5.6H272.88Z"/><path class="cls-2" d="M293.21,33.47V63.71a4.05,4.05,0,0,0,.87,3,3.63,3.63,0,0,0,4.65,0,4.06,4.06,0,0,0,.87-3V33.47h5.82V63.31q0,4.76-2.32,7.31t-6.86,2.55q-4.54,0-6.86-2.55t-2.32-7.31V33.47Z"/><path class="cls-2" d="M315.78,50h8.46v5.6h-8.46V67.07h10.64v5.6h-16.8V33.47h16.8v5.6H315.78Z"/><rect class="cls-2" x="152.84" y="88.5" width="95" height="5"/><rect class="cls-2" x="176.84" y="100" width="46" height="5"/></g></g></svg>